<?xml version="1.0" standalone="no"?>
<!DOCTYPE svg PUBLIC "-//W3C//DTD SVG 20010904//EN"
 "http://www.w3.org/TR/2001/REC-SVG-20010904/DTD/svg10.dtd">
<svg version="1.0" xmlns="http://www.w3.org/2000/svg"
 width="1080.000000pt" height="1080.000000pt" viewBox="0 0 1080.000000 1080.000000"
 preserveAspectRatio="xMidYMid meet">
<metadata>
Created by potrace 1.16, written by Peter Selinger 2001-2019
</metadata>
<g transform="translate(0.000000,1080.000000) scale(0.100000,-0.100000)"
fill="#000000" stroke="none">
<path d="M182 10743 c5 -32 13 -67 17 -78 5 -11 13 -32 20 -47 6 -16 15 -28
21 -28 5 0 10 -9 10 -20 0 -10 9 -24 20 -30 12 -6 20 -21 20 -36 0 -23 3 -25
37 -22 46 4 58 32 19 42 -15 4 -26 13 -26 20 0 8 -16 33 -35 55 -19 24 -32 48
-28 56 3 8 2 23 -3 33 -4 9 -14 37 -23 62 -11 32 -22 46 -37 48 -20 3 -21 1
-12 -55z"/>
<path d="M492 10780 c16 -25 49 -35 86 -25 15 4 47 8 72 9 49 1 39 17 88 -134
12 -36 25 -105 28 -153 5 -64 11 -90 22 -94 8 -4 85 -1 171 5 86 7 202 14 259
18 l102 6 0 -36 c0 -32 -3 -36 -32 -40 -18 -3 -46 -5 -63 -4 -16 0 -57 -2 -90
-5 -33 -3 -126 -8 -208 -12 -81 -5 -154 -13 -162 -19 -12 -10 -12 -32 0 -166
20 -223 33 -391 45 -585 6 -93 15 -210 20 -260 16 -148 19 -244 7 -248 -6 -2
-5 -12 3 -27 19 -36 27 -220 10 -230 -11 -7 -10 -11 3 -24 17 -17 20 -44 37
-304 11 -156 9 -192 -9 -163 -11 17 -81 4 -81 -15 0 -18 32 -34 69 -34 37 0
40 -8 45 -145 7 -185 19 -330 26 -340 5 -5 11 -53 15 -105 3 -52 8 -117 11
-145 18 -212 27 -376 28 -530 1 -99 5 -186 9 -192 4 -7 12 -47 17 -90 7 -63 5
-94 -11 -167 -23 -109 -23 -98 1 -126 22 -26 27 -82 7 -97 -6 -6 -25 -15 -41
-20 -27 -8 -31 -16 -48 -94 -10 -46 -24 -106 -32 -134 -47 -169 -62 -284 -27
-204 16 36 44 53 69 41 11 -6 29 -4 52 6 24 11 30 17 18 19 -21 5 -32 51 -17
69 6 8 24 14 40 14 27 0 29 -3 29 -40 0 -22 -4 -40 -9 -40 -5 0 -11 -18 -13
-40 -2 -26 1 -40 8 -40 7 0 15 6 17 13 4 8 6 6 6 -4 1 -13 -17 -19 -76 -29
-43 -7 -112 -24 -153 -37 -57 -19 -98 -25 -170 -26 -105 -2 -129 6 -157 53 -9
17 -21 30 -25 30 -4 0 -18 10 -30 22 -22 22 -23 22 -26 3 -2 -11 -13 -30 -24
-42 l-20 -22 22 -67 c17 -54 19 -69 8 -75 -7 -5 -16 -9 -20 -9 -5 0 -8 -5 -8
-11 0 -6 11 -4 27 5 45 24 181 64 273 80 47 9 119 22 160 30 41 7 110 17 153
20 75 7 77 6 77 -16 0 -13 8 -104 16 -203 8 -99 17 -214 20 -255 3 -41 12
-183 20 -315 9 -132 17 -282 20 -332 l4 -93 -28 -6 c-25 -7 -172 -148 -172
-166 0 -4 -6 -8 -14 -8 -8 0 -17 -13 -21 -30 -4 -16 -10 -30 -13 -30 -9 0 -32
-49 -32 -67 0 -7 -3 -13 -7 -13 -9 0 -33 -49 -33 -67 0 -7 -4 -13 -8 -13 -5 0
-15 -36 -22 -80 -7 -44 -17 -80 -22 -80 -13 0 -9 -116 8 -245 9 -66 17 -129
18 -140 1 -11 12 -40 24 -64 12 -25 22 -50 22 -57 0 -6 7 -15 16 -18 9 -3 14
-12 12 -18 -3 -7 4 -21 14 -32 10 -11 18 -28 18 -38 0 -17 -37 -96 -51 -108
-3 -3 -15 -25 -28 -50 -52 -102 -237 -360 -285 -398 -14 -11 -26 -22 -26 -25
0 -10 -47 -57 -56 -57 -5 0 -20 -18 -33 -40 -21 -34 -122 -145 -162 -177 -13
-10 -14 1 -11 88 4 86 2 99 -12 99 -22 0 -20 4 11 37 27 27 28 32 25 116 -3
77 -6 87 -22 87 -15 0 -20 -9 -23 -42 l-4 -43 -1 43 c-1 25 -7 42 -14 42 -9 0
-9 3 0 12 7 7 12 25 12 40 0 24 -4 28 -28 28 -15 0 -33 -5 -40 -12 -9 -9 -12
-9 -12 0 0 7 -16 12 -43 12 l-43 0 4 37 c3 21 17 56 33 77 16 22 29 50 29 62
0 13 4 26 10 29 5 3 10 19 10 35 0 20 6 31 20 35 22 7 23 11 20 78 -1 26 3 47
8 47 5 0 10 10 11 23 3 96 2 195 -2 212 -3 11 -6 26 -6 33 -1 6 -6 12 -12 12
-6 0 -8 -9 -4 -20 13 -40 6 -224 -10 -280 -9 -30 -21 -72 -27 -93 -6 -20 -17
-37 -24 -37 -8 0 -14 -10 -14 -21 0 -31 -22 -99 -32 -99 -4 0 -8 -8 -8 -18 0
-10 -9 -36 -20 -57 -12 -22 -26 -61 -31 -88 -6 -26 -15 -47 -20 -47 -5 0 -9
-141 -9 -341 0 -307 2 -341 16 -335 9 3 18 6 20 6 2 0 4 4 4 10 0 5 -7 7 -15
4 -8 -4 -15 -1 -15 5 0 6 5 11 10 11 6 0 10 18 10 40 0 33 3 40 20 40 17 0 20
-7 21 -42 1 -24 4 -34 6 -24 3 11 16 31 29 45 21 23 24 35 24 103 l0 78 30 0
c20 0 30 -5 30 -15 0 -9 12 -18 30 -21 16 -4 30 -11 30 -15 0 -5 -56 -70 -125
-143 l-125 -134 0 -1116 0 -1116 5400 0 5400 0 0 2139 c0 1702 -3 2140 -12
2144 -10 4 -10 6 0 6 8 1 12 19 12 57 0 54 0 55 -27 52 -17 -2 -32 -12 -39
-26 -6 -12 -20 -29 -30 -36 -15 -11 -16 -17 -6 -29 7 -8 9 -17 5 -19 -4 -2
-74 -5 -155 -7 l-148 -3 0 61 c0 36 4 61 10 61 8 0 8 6 1 17 -7 13 -5 23 7 36
14 16 15 22 2 60 l-15 42 -77 0 c-66 0 -79 3 -92 20 -14 19 -12 20 52 27 79 9
116 3 108 -17 -3 -10 0 -12 11 -8 11 4 14 2 9 -5 -4 -7 -1 -12 8 -12 9 0 16 5
16 10 0 6 13 10 30 10 16 0 52 9 80 20 28 11 60 20 70 20 12 0 20 7 20 18 1
11 21 27 60 45 33 15 60 32 60 37 0 6 9 10 20 10 28 0 25 25 -6 39 -28 12 -44
7 -44 -15 0 -8 -8 -14 -18 -14 -10 0 -32 -15 -48 -33 -16 -18 -36 -36 -44 -40
-8 -4 -31 -17 -50 -28 -23 -14 -52 -21 -83 -21 -47 0 -74 10 -49 19 6 3 12 12
12 20 0 11 -7 14 -25 9 -17 -4 -25 -2 -25 6 0 7 -9 2 -19 -11 -15 -19 -24 -23
-48 -18 -16 3 -46 2 -66 -3 -27 -6 -39 -4 -48 6 -6 8 -17 14 -25 14 -24 0 -52
41 -57 83 -5 44 14 129 42 185 11 23 22 32 41 32 32 0 104 20 97 27 -3 3 -101
5 -219 6 -216 0 -252 3 -243 18 9 13 165 26 348 29 20 0 37 5 37 10 0 6 -14
10 -32 10 -34 0 -98 20 -98 30 0 18 46 25 91 16 36 -7 52 -7 61 2 9 9 5 12
-19 12 -18 0 -35 5 -38 10 -4 6 16 10 53 10 33 0 75 3 93 6 32 5 33 5 15 -10
-20 -16 -20 -16 0 -16 11 0 25 -5 32 -12 9 -9 12 -7 13 12 0 14 3 36 5 50 9
50 30 560 25 608 -1 8 -27 12 -93 13 -51 0 -115 4 -143 9 l-50 7 42 2 c23 0
43 6 45 11 2 6 45 12 97 15 63 2 97 8 102 17 10 15 12 109 3 132 -8 20 -24 21
-24 2 0 -8 -8 -17 -17 -20 -36 -11 -156 -27 -161 -21 -3 3 4 5 16 5 13 0 22 6
22 15 0 10 10 15 30 15 17 0 30 4 30 9 0 6 21 13 48 17 59 8 75 20 67 52 -3
14 -1 133 5 266 6 132 11 314 13 404 l2 163 -30 8 c-19 5 -29 14 -29 24 1 10
-2 17 -7 17 -5 0 -9 13 -9 29 0 28 1 29 40 24 26 -4 40 -2 40 6 0 6 -12 11
-27 11 -23 1 -18 5 27 24 47 19 71 22 160 20 58 -1 110 -3 115 -4 38 -9 45 0
45 54 0 47 -3 55 -22 61 l-23 8 22 4 c20 4 22 10 21 74 l-2 69 -38 0 c-27 0
-38 4 -38 15 0 8 8 15 18 16 13 0 13 2 -4 9 -25 10 -41 30 -25 30 6 0 11 5 11
10 0 6 -7 10 -16 10 -9 0 -29 8 -46 18 -26 15 -29 22 -26 55 2 20 0 37 -4 37
-5 0 -8 18 -8 40 0 22 -4 40 -8 40 -4 0 -8 9 -8 20 0 11 4 20 9 20 9 0 127
-115 127 -124 0 -3 7 -14 15 -23 8 -10 21 -27 29 -38 14 -18 15 -11 16 83 0
91 -2 102 -18 102 -9 0 -35 9 -56 21 -35 19 -125 29 -161 19 -5 -1 -31 -2 -57
-1 l-48 1 0 36 c0 19 -5 45 -12 57 -6 12 -11 37 -9 55 2 30 0 32 -19 22 -11
-6 -20 -14 -20 -18 0 -10 -86 -52 -105 -52 -8 0 -15 -8 -15 -17 0 -9 3 -13 7
-10 15 16 85 -121 85 -166 -1 -40 -22 -99 -43 -119 -24 -23 -25 -23 -42 10
-12 26 -12 31 9 61 22 32 22 33 3 52 -24 24 -24 34 1 59 23 23 25 31 6 24 -9
-3 -15 5 -19 23 -5 25 -10 28 -47 30 -38 2 -42 0 -55 -30 -19 -45 -37 -59 -77
-56 -56 4 -108 -1 -108 -10 0 -5 11 -16 25 -25 37 -24 120 -4 163 41 l32 34
10 -28 c6 -15 12 -33 15 -39 2 -7 -9 -14 -23 -17 -44 -9 -122 -45 -122 -57 0
-23 32 -21 69 3 34 23 60 31 85 28 19 -2 -47 -51 -70 -51 -15 0 -24 -6 -24
-15 0 -11 12 -15 44 -15 50 0 79 -22 50 -38 -16 -9 -16 -10 2 -16 10 -3 39 -3
64 0 25 4 57 6 73 5 18 0 27 5 27 15 0 11 -6 13 -20 9 -28 -9 -25 8 13 85 36
72 60 85 92 50 16 -18 17 -25 6 -62 -7 -23 -15 -53 -18 -67 -2 -13 -9 -34 -15
-45 -7 -12 -14 -37 -18 -56 -3 -23 -12 -36 -23 -38 -14 -3 -18 2 -15 20 l3 23
-289 2 c-160 2 -294 7 -299 12 -13 13 23 30 64 31 19 1 61 2 94 3 33 2 93 4
133 5 82 2 99 19 19 19 -58 0 -102 21 -110 53 -3 11 -1 20 5 20 5 0 0 14 -12
30 -12 17 -28 30 -36 30 -8 0 -14 7 -14 15 0 27 -33 83 -51 88 -11 3 -19 2
-19 -3 0 -15 -34 -21 -46 -8 -7 7 -16 25 -19 41 -6 22 -4 27 12 27 27 0 35
-10 22 -27 -19 -22 7 -16 51 12 22 14 44 25 50 25 17 0 11 36 -9 61 -16 19
-22 22 -32 12 -10 -10 -10 -16 -1 -25 18 -18 14 -38 -7 -38 -25 0 -38 20 -20
30 10 7 10 12 -2 27 -8 10 -20 22 -27 27 -27 16 -42 71 -31 111 6 20 8 47 5
59 -8 34 20 68 52 62 15 -2 47 -1 72 3 43 8 44 9 10 10 -37 2 -77 41 -64 63 4
6 3 8 -3 5 -6 -4 -25 9 -42 28 -17 19 -37 35 -45 35 -13 0 -26 20 -26 39 0 4
27 3 61 -2 80 -13 97 1 49 41 -23 19 -30 31 -22 36 7 4 19 0 27 -8 28 -28 102
-86 109 -86 4 0 5 14 1 31 -7 29 -6 30 14 20 27 -15 55 -57 46 -71 -4 -6 3
-10 17 -10 14 0 41 -17 66 -41 46 -45 52 -59 24 -59 -10 0 -22 -4 -28 -9 -5
-6 -31 -12 -59 -14 -27 -3 28 -3 123 -1 96 2 178 6 183 9 5 4 19 27 30 52 16
35 20 58 15 90 -6 42 -5 43 23 43 35 0 61 9 61 21 0 4 -11 19 -25 31 -24 23
-25 25 -13 81 9 44 16 56 28 52 8 -2 23 6 32 19 17 23 17 24 -8 30 -18 5 -25
12 -22 24 3 10 -1 23 -9 30 -7 7 -13 17 -13 22 0 16 36 12 50 -5 7 -8 18 -15
24 -15 6 0 26 -16 43 -35 18 -19 35 -35 38 -35 4 0 26 -13 50 -30 67 -46 75
-42 75 35 0 57 -3 69 -25 90 -13 14 -29 25 -35 25 -6 0 -31 14 -56 30 -47 33
-53 29 -29 -16 22 -42 4 -49 -52 -18 -67 38 -83 62 -87 135 -2 38 -8 64 -17
70 -8 5 -15 4 -17 -1 -2 -6 -10 -10 -18 -10 -8 0 -14 -4 -14 -9 0 -5 -10 -7
-22 -3 -14 3 -19 1 -14 -6 3 -6 2 -13 -4 -17 -5 -3 -10 3 -10 15 0 12 -4 18
-11 15 -6 -4 -8 -13 -5 -21 8 -21 -66 -64 -109 -64 -19 0 -35 -5 -35 -11 0 -7
7 -8 18 -4 9 4 61 9 114 12 l97 6 -6 -24 c-9 -38 -20 -46 -83 -60 -60 -13 -91
-39 -47 -39 13 0 28 -5 34 -11 10 -10 46 -4 96 16 26 11 21 -9 -5 -20 -13 -6
-23 -16 -23 -24 0 -14 -122 -64 -136 -55 -13 7 -11 24 2 24 6 0 22 9 36 20 22
17 23 20 7 20 -11 0 -37 -9 -58 -21 l-38 -20 -52 20 c-49 20 -148 45 -305 76
-41 8 -78 20 -83 27 -11 18 -10 46 2 53 6 4 5 11 -4 20 -7 8 -17 40 -21 72
-10 81 -19 95 -52 82 -15 -6 -37 -8 -49 -5 -21 6 -22 8 -8 36 8 16 28 40 44
54 17 14 30 31 30 39 0 16 -34 29 -56 20 -19 -7 -18 -23 1 -23 12 0 13 -3 3
-19 -13 -21 -61 -35 -66 -20 -2 5 -10 9 -17 9 -15 0 -28 27 -19 41 3 6 1 15
-5 22 -9 12 -32 100 -47 182 -3 17 -7 36 -10 44 -2 7 0 19 4 25 15 19 21 56
10 62 -16 10 -48 87 -48 117 0 15 -6 30 -14 33 -8 3 -22 33 -32 66 -14 44 -25
63 -41 69 -13 5 -23 12 -23 17 0 5 -9 19 -20 32 -11 13 -20 29 -20 35 0 7 -10
19 -22 28 -13 8 -34 24 -48 36 -13 12 -39 31 -57 42 -17 11 -30 26 -27 33 7
18 80 36 94 22 5 -5 10 -7 10 -3 0 4 -9 16 -21 28 -19 19 -19 22 -5 38 14 16
14 19 -2 34 -10 11 -13 20 -7 25 6 4 16 17 23 30 11 19 9 26 -10 52 -24 33
-40 37 -58 15 -21 -26 -4 -48 31 -40 28 6 30 6 18 -13 -16 -26 -66 -41 -103
-31 -43 12 -56 -3 -15 -16 23 -8 34 -18 34 -31 0 -29 -61 -19 -103 17 -18 16
-40 29 -50 29 -9 0 -28 9 -42 20 l-25 21 28 -7 c33 -7 34 2 6 33 -23 24 -25
22 26 38 23 7 18 25 -7 27 -13 1 -30 2 -38 4 -8 1 -20 2 -27 3 -7 1 -26 15
-44 32 -23 23 -28 34 -20 42 8 8 19 7 41 -6 20 -12 57 -19 112 -21 46 -2 98
-7 117 -12 25 -5 32 -4 27 4 -4 7 -15 12 -24 12 -10 0 -24 9 -32 20 -8 12 -26
20 -42 20 -15 0 -28 4 -28 10 0 5 -19 14 -43 20 -112 28 -147 42 -147 61 0 5
7 9 15 9 8 0 15 5 15 10 0 6 -19 10 -42 11 -75 2 -110 7 -118 15 -5 5 -5 26
-1 47 10 41 -1 57 -23 34 -16 -16 -92 -15 -109 2 -8 8 -5 15 11 27 32 22 29
47 -5 40 -31 -7 -65 9 -48 22 6 4 11 16 10 27 0 14 7 21 25 23 22 2 23 1 8 -8
-29 -18 -21 -30 20 -30 25 0 33 3 23 9 -11 7 -9 10 10 13 19 2 23 8 22 28 -2
20 4 28 30 40 l32 14 -49 9 c-36 6 -51 5 -57 -5 -4 -6 -6 -15 -4 -18 2 -4 -22
-7 -54 -8 -33 -1 -71 -6 -86 -12 -31 -12 -75 -13 -75 -2 0 4 14 27 30 52 37
55 38 70 4 70 -34 0 -63 -17 -74 -43 -6 -12 -14 -29 -19 -37 -5 -8 -12 -23
-15 -33 -8 -24 -37 -33 -133 -41 -70 -6 -83 -5 -83 8 0 8 -10 16 -22 18 -36 5
-34 34 4 48 30 12 31 14 11 17 -29 6 -29 17 0 32 19 10 16 11 -23 6 -25 -3
-47 -10 -48 -16 -4 -11 -55 -39 -72 -39 -5 0 -10 6 -10 14 0 8 -16 16 -39 20
-28 4 -52 19 -85 51 l-47 45 -1347 0 c-741 0 -1364 -4 -1384 -9 -21 -5 -54
-23 -73 -40 -20 -17 -46 -31 -60 -31 -13 0 -37 -13 -53 -30 -27 -26 -39 -31
-98 -34 -78 -5 -82 -10 -83 -93 -2 -93 -23 -112 -40 -35 -5 26 -7 67 -4 91 5
35 3 43 -8 39 -8 -2 -18 -14 -24 -26 -5 -12 -19 -22 -30 -24 -16 -2 -19 -9
-17 -38 1 -19 7 -39 12 -44 6 -6 10 -20 10 -33 0 -12 9 -27 19 -33 14 -7 19
-19 18 -42 -2 -27 -7 -33 -37 -41 -26 -7 -41 -5 -61 7 -46 27 -51 7 -53 -180
-2 -151 -4 -167 -21 -180 -16 -12 -22 -12 -42 1 -13 9 -23 11 -23 6 0 -5 5
-13 10 -16 15 -10 39 -71 35 -92 -2 -10 -4 -21 -4 -25 -2 -14 -31 -8 -31 6 0
20 -39 66 -56 66 -12 0 -12 -4 -4 -20 7 -14 8 -26 0 -39 -7 -14 -7 -22 1 -26
6 -4 13 2 16 14 7 26 23 28 23 2 0 -31 11 -51 29 -52 9 -1 5 -4 -9 -8 -31 -9
-38 -37 -11 -46 24 -7 17 -35 -9 -35 -23 0 -45 -26 -30 -35 14 -9 13 -25 -2
-25 -7 0 -19 -4 -27 -9 -20 -13 0 -37 47 -57 29 -12 33 -16 22 -29 -16 -20 -4
-33 17 -19 12 7 27 7 50 -1 48 -17 51 -25 9 -25 -20 0 -51 -7 -68 -16 -22 -11
-43 -14 -74 -9 -28 4 -44 2 -44 -4 0 -6 -9 -15 -20 -21 -15 -8 -26 -7 -45 6
-14 9 -25 13 -24 8 5 -27 -4 -43 -32 -54 -17 -7 -55 -44 -86 -82 -30 -38 -61
-72 -69 -75 -8 -3 -14 -13 -14 -22 0 -10 -13 -30 -30 -46 -16 -16 -30 -36 -30
-46 0 -9 -6 -22 -14 -28 -8 -7 -18 -27 -22 -44 -8 -41 -63 -160 -77 -169 -8
-5 -8 -14 0 -30 8 -17 8 -30 1 -43 -8 -13 -7 -24 1 -36 16 -27 13 -86 -6 -116
-16 -24 -16 -26 0 -37 15 -12 15 -14 0 -29 -15 -15 -15 -18 2 -37 17 -19 17
-23 3 -53 -12 -26 -13 -43 -5 -94 11 -63 20 -77 31 -47 9 23 26 7 26 -26 0
-16 5 -41 11 -57 6 -15 11 -47 10 -71 -2 -36 1 -43 16 -40 15 3 18 -4 18 -42
0 -25 4 -52 9 -60 6 -8 13 -32 17 -55 4 -22 15 -67 24 -100 17 -64 18 -69 13
-100 -2 -12 3 -20 11 -20 16 0 33 -51 26 -76 -3 -9 1 -32 10 -52 8 -20 15 -53
15 -73 0 -33 -2 -36 -25 -32 -14 3 -33 -1 -42 -8 -17 -12 -17 -14 2 -28 11 -8
33 -16 48 -16 l28 0 -7 -77 c-4 -43 -16 -103 -26 -133 -39 -109 -50 -189 -44
-304 4 -60 14 -132 23 -160 20 -60 23 -235 7 -411 -8 -94 -7 -122 8 -195 16
-71 24 -118 39 -215 2 -14 14 57 37 236 23 172 56 327 84 399 5 13 19 51 30
85 11 33 26 74 34 92 8 17 14 37 14 45 0 7 6 22 14 33 7 11 17 35 20 52 4 18
12 36 18 39 7 5 9 0 6 -13 -4 -16 -2 -19 14 -15 17 4 19 11 13 51 -4 37 -1 55
20 95 14 27 25 55 25 62 0 6 8 15 17 18 14 6 15 9 4 15 -16 10 -6 31 15 31 17
0 18 22 2 38 -9 9 -6 12 15 12 25 0 26 1 14 27 -9 21 -9 27 1 31 6 2 12 16 12
30 0 15 7 40 15 56 8 15 15 34 15 41 0 7 7 18 15 25 11 10 14 22 9 44 -6 27
-5 29 10 17 14 -12 16 -10 16 18 0 20 5 31 14 31 8 0 16 7 20 15 3 8 14 15 25
15 17 0 31 18 31 40 0 5 -10 11 -22 13 l-23 4 22 2 c30 1 62 59 41 73 -9 6 -6
7 10 3 16 -5 22 -2 22 9 0 8 -5 18 -10 21 -16 10 0 27 21 22 22 -6 37 12 19
23 -8 5 -7 9 4 13 23 9 20 42 -6 61 -15 10 -17 14 -5 10 9 -4 17 -1 17 5 0 6
7 11 15 11 8 0 15 -5 15 -11 0 -6 10 -9 23 -7 18 2 22 10 23 38 1 18 6 36 11
37 6 2 9 13 6 23 -4 14 0 20 11 20 14 0 21 -11 17 -32 0 -5 5 -8 12 -8 8 0 11
15 9 47 -3 58 9 83 32 64 23 -19 38 -4 31 30 -4 18 -3 29 4 29 6 0 11 7 11 15
0 8 -5 15 -11 15 -5 0 -7 5 -4 11 6 9 28 -11 73 -66 20 -23 67 -16 67 10 0 11
-10 24 -22 30 -32 14 -41 40 -11 30 52 -16 68 -17 68 -5 0 6 -7 19 -16 28 -15
14 -15 17 0 27 17 13 22 45 7 45 -8 0 -23 32 -25 57 -1 6 -5 15 -8 19 -4 4 0
12 9 19 14 11 14 16 2 43 -8 18 -17 32 -22 32 -4 0 -3 9 4 21 6 12 9 30 6 40
-3 10 4 30 15 44 11 14 17 32 14 40 -4 11 2 15 19 15 32 0 36 39 5 47 -15 4
-19 11 -14 26 5 16 3 19 -10 14 -10 -4 -16 -1 -16 8 0 19 21 30 30 15 5 -9 9
-9 14 -1 10 15 -3 53 -15 46 -5 -4 -9 2 -9 11 0 9 27 42 60 73 33 31 60 61 60
67 0 6 21 22 48 35 32 17 46 30 44 42 -2 9 2 17 8 17 18 0 11 35 -10 48 -24
15 -26 38 -4 46 28 11 33 7 40 -29 7 -38 21 -46 31 -17 8 20 68 82 81 82 5 0
7 -11 5 -23 -4 -21 -1 -24 34 -25 21 -1 39 -6 41 -12 5 -13 32 -13 32 0 0 6
-13 13 -30 17 -23 4 -30 11 -30 28 0 14 7 25 20 28 14 3 20 14 20 31 0 14 3
26 8 26 8 0 32 -49 32 -67 0 -15 38 -17 59 -4 8 5 11 16 7 26 -6 16 -1 17 44
12 29 -4 68 -12 87 -19 29 -10 37 -10 40 0 3 7 24 12 59 12 34 0 64 6 80 16
24 16 26 16 45 -5 20 -22 55 -28 61 -11 4 12 69 -19 86 -42 7 -10 20 -18 29
-18 9 0 29 -14 46 -31 23 -25 27 -33 16 -41 -9 -6 -2 -7 22 -3 26 5 39 2 48
-9 8 -9 22 -16 32 -16 11 0 19 -4 19 -9 0 -6 12 -16 26 -23 23 -12 35 -28 66
-90 4 -10 8 -27 8 -37 0 -11 5 -23 10 -26 6 -3 10 -21 10 -38 1 -18 7 -43 15
-57 13 -23 14 -19 10 50 -2 41 -2 66 2 55 3 -11 16 -33 29 -48 15 -18 24 -41
24 -63 0 -41 26 -97 41 -88 6 3 8 17 5 30 -11 41 10 27 28 -19 20 -52 20 -57
1 -57 -20 0 -19 -34 2 -51 22 -19 53 -88 53 -119 0 -42 36 -130 63 -159 55
-57 95 -91 106 -91 6 0 11 -4 11 -9 0 -5 25 -24 55 -41 68 -39 79 -55 101
-150 16 -71 46 -164 65 -202 5 -10 9 -30 9 -45 1 -27 35 -81 46 -71 2 3 1 16
-4 29 -23 58 -33 101 -27 107 11 11 44 -40 62 -96 16 -51 16 -54 0 -63 -26
-15 -21 -36 17 -74 30 -29 36 -45 52 -132 14 -73 20 -89 22 -63 2 19 7 39 11
43 9 9 49 -40 74 -90 10 -17 29 -39 44 -48 30 -18 91 -135 112 -215 7 -25 28
-76 46 -115 18 -38 36 -86 40 -105 l6 -35 -103 3 c-70 3 -108 8 -119 18 -22
19 -42 18 -62 -6 -9 -11 -25 -20 -36 -20 -11 0 -21 -9 -24 -21 -5 -17 -11 -20
-31 -15 -14 3 -28 1 -31 -4 -5 -8 -11 -8 -19 -1 -9 7 -20 5 -37 -7 -13 -9 -37
-21 -54 -27 -16 -5 -34 -20 -40 -32 -5 -12 -20 -26 -32 -32 -14 -6 -33 -33
-47 -66 -21 -46 -29 -55 -51 -55 -15 0 -35 5 -47 11 -23 13 -39 2 -18 -12 12
-8 11 -9 -5 -7 -11 2 -20 11 -20 20 0 9 -4 20 -8 24 -4 4 -7 2 -7 -4 0 -9 -12
-10 -39 -6 -25 4 -41 2 -46 -6 -10 -16 33 -59 69 -68 23 -6 31 -14 32 -32 1
-12 9 -27 18 -32 22 -12 20 -40 -5 -72 -18 -23 -20 -31 -10 -52 15 -33 15 -32
-16 -36 -40 -4 -44 -38 -5 -38 16 0 34 -6 39 -12 5 -7 11 -61 12 -120 2 -93 0
-108 -16 -117 -14 -7 -15 -13 -6 -22 9 -9 3 -23 -24 -61 -38 -52 -44 -85 -22
-124 11 -21 11 -27 -1 -34 -7 -4 -14 -17 -15 -28 -1 -11 -6 -26 -12 -34 -21
-26 -35 -186 -20 -231 8 -24 6 -33 -10 -49 -19 -18 -19 -23 -7 -65 8 -26 11
-62 8 -87 -4 -27 -2 -46 5 -50 6 -4 11 -29 11 -56 0 -39 -5 -52 -23 -67 -12
-10 -33 -33 -45 -50 -21 -30 -97 -73 -127 -73 -7 0 -24 -9 -38 -20 -14 -11
-36 -19 -49 -18 -12 0 -41 -4 -64 -10 -28 -8 -57 -9 -90 -3 -27 5 -50 8 -52 6
-7 -7 23 -45 35 -45 7 0 22 -9 33 -20 15 -15 33 -20 73 -20 40 0 58 -5 70 -18
21 -23 21 -36 1 -57 -10 -9 -19 -33 -21 -53 -2 -20 -11 -44 -20 -54 -11 -13
-14 -29 -10 -58 5 -37 3 -40 -19 -40 -16 0 -24 -6 -24 -17 0 -14 -2 -15 -12
-4 -10 11 -10 14 0 18 6 3 12 9 12 14 0 14 -28 11 -56 -7 -24 -17 -26 -16 -54
17 -29 34 -42 99 -20 99 13 0 29 41 23 58 -3 6 -11 12 -19 12 -7 0 -25 11 -38
25 l-26 26 -16 -41 c-9 -22 -20 -40 -25 -40 -5 0 -9 -8 -9 -19 0 -10 -7 -24
-15 -31 -12 -10 -16 -7 -25 16 -6 15 -20 34 -31 41 -27 20 -50 67 -47 100 2
15 -1 29 -7 31 -5 1 -10 -11 -11 -26 -1 -16 -7 -39 -13 -51 -7 -12 -9 -31 -6
-41 7 -21 39 -27 50 -10 4 6 11 5 19 -2 10 -10 9 -19 -7 -50 -12 -21 -24 -38
-29 -38 -12 0 -10 34 4 48 9 9 7 13 -5 18 -24 9 -37 -4 -38 -39 0 -18 -3 -25
-6 -17 -2 8 -8 24 -13 35 -4 11 -15 41 -25 67 -9 27 -19 48 -22 48 -11 0 -35
-33 -53 -73 l-19 -43 -71 0 c-52 1 -75 -3 -84 -14 -15 -17 -31 -140 -19 -140
16 0 31 16 48 50 10 19 20 29 22 23 3 -7 21 -13 41 -13 21 0 43 -4 50 -9 13
-8 127 10 139 23 3 3 12 -2 18 -11 12 -16 14 -16 37 -1 23 15 26 15 41 -3 10
-11 30 -19 47 -19 28 0 29 -1 19 -27 -7 -19 -7 -29 0 -31 6 -2 11 -9 11 -15 0
-17 62 -57 88 -57 18 0 22 -5 19 -25 -4 -33 -67 -86 -67 -57 0 14 -138 6 -155
-8 -13 -11 -17 -8 -26 17 l-10 30 -40 -14 c-36 -12 -44 -11 -69 4 -27 16 -30
16 -48 0 -27 -25 -34 -21 -27 13 6 28 5 30 -22 30 -79 0 -97 -1 -112 -9 -9 -5
-43 -12 -76 -15 -33 -4 -77 -12 -97 -18 -30 -9 -46 -8 -80 5 -24 9 -70 17
-103 19 l-60 3 0 -35 c0 -34 2 -35 40 -38 47 -4 78 -28 71 -56 -3 -10 -1 -27
5 -37 6 -11 5 -20 -1 -24 -5 -3 -10 -16 -10 -29 0 -12 -5 -27 -11 -33 -5 -5
-9 -32 -7 -59 3 -43 7 -50 36 -67 26 -15 36 -17 42 -8 11 18 20 -11 20 -65 0
-36 3 -44 19 -44 10 0 24 -6 30 -14 7 -8 25 -18 41 -21 19 -4 32 -16 41 -38 7
-17 25 -42 39 -54 19 -18 22 -25 12 -31 -11 -8 -11 -10 2 -15 8 -3 23 1 32 10
13 14 17 14 25 2 5 -8 7 -22 5 -31 -6 -28 21 -55 63 -62 45 -7 62 -24 37 -38
-21 -12 -21 -32 1 -24 9 4 20 1 25 -6 5 -9 8 -4 8 15 0 17 5 27 15 27 17 0 19
-34 6 -91 -9 -39 0 -66 17 -55 6 3 17 3 26 0 19 -7 22 -64 4 -82 -9 -9 -8 -13
5 -18 27 -10 52 0 55 24 3 17 -2 22 -17 22 -26 0 -27 16 -2 30 29 15 51 12 51
-6 0 -12 5 -14 18 -9 9 4 27 10 40 12 12 3 22 9 22 13 0 14 71 22 86 9 10 -8
21 -9 37 -2 20 9 132 3 139 -7 23 -37 30 -63 32 -122 1 -38 7 -73 13 -76 19
-13 23 -48 8 -68 -8 -10 -15 -38 -15 -61 0 -42 -13 -63 -25 -43 -10 15 -34
-19 -35 -47 0 -16 -6 -23 -19 -23 -10 0 -21 -7 -25 -15 -3 -8 -13 -15 -22 -15
-12 0 -15 -7 -12 -29 2 -17 1 -28 -3 -25 -4 2 -10 -5 -14 -16 -7 -22 -20 -26
-30 -9 -4 5 -16 -8 -27 -31 -28 -57 -58 -75 -99 -61 -17 6 -35 9 -38 6 -4 -2
-13 -29 -21 -59 -9 -37 -17 -53 -26 -49 -7 3 -18 1 -25 -3 -15 -9 -79 -13 -79
-4 0 3 9 16 20 28 19 20 28 62 13 62 -5 0 -19 -9 -33 -20 -14 -11 -34 -20 -45
-20 -11 0 -33 -9 -50 -20 -32 -21 -65 -26 -80 -11 -6 4 -30 14 -55 20 -34 10
-54 24 -80 57 -19 24 -40 42 -47 40 -7 -3 -15 -1 -18 4 -4 6 -19 10 -36 10
-19 0 -29 5 -29 15 0 20 -28 8 -35 -16 -7 -21 -35 -26 -35 -6 0 8 -3 7 -10 -3
-8 -12 -10 -12 -16 3 -4 11 0 25 10 35 16 18 25 106 13 119 -4 3 -7 -4 -7 -16
0 -12 -6 -24 -14 -27 -8 -3 -16 -18 -20 -35 -3 -16 -12 -29 -20 -29 -22 0 -25
11 -16 58 4 23 3 45 -1 48 -5 3 -5 14 1 24 13 23 13 40 1 40 -12 0 -38 -25
-43 -41 -4 -12 -35 8 -62 39 -6 7 -16 18 -22 25 -8 8 -10 32 -6 65 5 53 5 53
-22 49 -15 -2 -31 -9 -36 -17 -5 -8 -6 4 -3 31 3 24 12 54 19 66 22 35 17 33
-28 -8 l-42 -38 -13 29 c-8 20 -19 30 -34 30 -21 0 -21 1 -6 18 19 21 22 48 7
57 -5 3 -10 17 -10 29 0 28 -25 54 -33 34 -3 -7 -3 10 0 37 6 49 6 50 -14 32
-24 -21 -43 -22 -43 -3 0 24 43 82 73 99 15 9 27 21 27 27 0 13 -57 13 -65 0
-3 -5 -28 -8 -55 -7 -55 2 -61 11 -35 61 17 32 18 36 8 36 -15 -1 -83 -68 -83
-82 0 -8 -14 -24 -30 -36 l-30 -23 -12 26 c-6 14 -23 31 -38 39 -24 12 -28 11
-39 -6 -14 -22 -31 -15 -31 12 0 11 -9 24 -20 30 -11 6 -20 17 -20 25 0 7 -8
16 -18 19 -9 3 -24 17 -32 30 -72 115 -140 203 -140 180 0 -14 42 -94 49 -94
4 0 14 -18 21 -41 8 -23 20 -43 27 -46 8 -3 21 -20 30 -37 9 -17 22 -36 30
-41 8 -6 19 -20 26 -32 7 -12 27 -42 45 -68 37 -53 40 -69 12 -60 -24 7 -60
-10 -60 -30 0 -18 13 -26 53 -32 18 -3 33 -6 35 -8 10 -9 11 -59 1 -71 -9 -11
-8 -22 5 -48 9 -19 16 -59 16 -88 0 -43 5 -59 21 -74 12 -10 25 -29 29 -40 7
-17 15 -20 35 -16 22 4 26 1 24 -14 -5 -29 23 -64 49 -64 16 0 26 -7 29 -20 5
-20 7 -20 24 -4 11 9 19 24 19 31 0 8 5 13 12 11 7 -3 12 -34 13 -85 3 -86 8
-103 31 -103 8 0 14 -4 14 -10 0 -5 6 -7 14 -4 8 3 26 -7 41 -22 25 -25 26
-28 10 -40 -26 -19 -16 -58 17 -62 16 -2 30 -11 33 -23 7 -20 25 -27 25 -9 0
15 30 12 31 -2 1 -7 2 -19 3 -27 1 -19 26 -27 26 -9 0 13 10 13 70 0 64 -14
71 -14 88 1 35 31 52 22 52 -28 0 -41 2 -45 25 -45 25 0 33 14 15 25 -15 9
-12 45 3 45 20 0 57 -30 57 -46 0 -8 5 -14 10 -14 6 0 23 -8 37 -17 15 -10 42
-23 60 -29 30 -11 33 -10 34 10 1 17 2 17 6 4 5 -21 8 -22 35 -7 16 9 24 7 43
-11 15 -14 25 -18 30 -11 3 6 -1 11 -9 11 -19 0 -21 11 -4 28 21 21 38 14 38
-15 0 -41 -13 -54 -51 -55 -51 0 -75 -8 -58 -19 19 -12 86 -11 94 1 3 5 22 17
41 26 32 16 36 15 54 -1 12 -10 26 -15 37 -11 9 4 31 0 48 -8 69 -34 264 -88
297 -83 18 3 80 12 138 21 105 15 182 41 252 84 20 12 40 22 45 21 15 -4 42
12 79 47 24 24 40 32 48 25 13 -11 93 2 109 18 6 6 28 11 49 11 29 0 38 -4 38
-17 0 -10 18 -31 40 -47 38 -28 40 -33 40 -83 0 -31 4 -53 11 -53 6 0 9 -10 7
-22 -2 -18 -11 -24 -35 -26 -37 -4 -44 -24 -14 -38 19 -8 19 -10 3 -29 -9 -11
-35 -33 -57 -49 -22 -16 -44 -34 -50 -41 -10 -11 -212 -139 -397 -251 -54 -33
-117 -71 -140 -86 -24 -15 -49 -31 -57 -34 -7 -4 -59 -35 -115 -69 -212 -128
-326 -190 -801 -430 -154 -78 -302 -150 -330 -159 -27 -10 -58 -22 -67 -27
-10 -5 -34 -9 -54 -9 -19 0 -41 -6 -48 -13 -10 -9 -44 -12 -127 -10 -109 3
-170 14 -196 36 -9 6 -13 6 -13 -2 0 -16 -18 -14 -48 7 -15 10 -63 34 -107 52
-44 19 -91 45 -105 57 -14 13 -30 23 -36 23 -19 0 -167 149 -169 168 -1 18
-26 58 -55 91 -17 18 -35 70 -51 146 -5 28 -16 59 -23 70 -7 11 -15 48 -19 83
-3 34 -9 68 -15 75 -5 7 -17 55 -26 107 -10 52 -22 106 -29 120 -6 14 -14 54
-18 90 -4 36 -12 105 -18 155 -14 111 -19 359 -9 441 8 61 31 138 47 158 5 6
12 28 16 49 5 26 12 37 21 33 7 -3 11 0 9 7 -3 7 7 20 21 31 23 16 27 17 41 3
14 -14 18 -13 39 10 12 13 20 31 17 39 -6 17 15 46 28 38 5 -3 9 4 9 15 0 12
16 31 40 48 22 15 40 36 40 46 0 9 9 26 19 36 12 12 17 27 14 40 -6 23 11 28
37 11 12 -8 12 -11 -1 -27 -20 -23 -10 -66 15 -71 15 -3 17 1 11 26 -3 17 -2
33 3 35 4 3 5 38 1 78 -5 40 -6 75 -4 79 2 3 7 115 10 249 l6 243 -78 -7
c-115 -9 -118 -10 -148 -61 -40 -69 -62 -90 -114 -113 -68 -29 -109 -18 -179
46 -7 7 -12 27 -10 45 2 26 10 37 38 50 35 17 33 18 -141 17 -97 -1 -182 2
-188 5 -12 8 -15 45 -5 70 5 14 31 16 180 16 96 0 174 4 174 9 0 10 -237 22
-295 15 -25 -3 -46 -12 -55 -25 -26 -37 -64 -71 -91 -83 -46 -20 -106 -80
-134 -135 -26 -53 -27 -55 -15 -135 17 -112 23 -130 48 -141 13 -5 28 -23 35
-38 6 -16 28 -37 49 -48 20 -10 42 -32 50 -49 7 -17 23 -33 34 -36 23 -6 105
31 184 82 114 73 130 81 211 105 101 29 217 43 248 29 34 -15 14 -31 -43 -34
-56 -3 -88 -30 -105 -88 -8 -27 -16 -37 -23 -30 -6 6 -5 23 3 51 7 23 10 44 7
47 -3 2 -27 0 -53 -7 l-46 -12 6 -51 c4 -28 12 -54 18 -58 6 -4 8 -11 3 -15
-12 -12 -56 45 -56 73 0 27 -15 30 -55 12 -27 -12 -31 -32 -15 -87 5 -19 8
-36 6 -38 -10 -10 -36 12 -45 38 -12 35 -20 36 -71 4 -28 -18 -40 -32 -40 -48
0 -34 -10 -39 -29 -15 -16 19 -20 20 -57 7 -53 -18 -64 -27 -64 -56 0 -14 -4
-21 -10 -18 -5 3 -10 15 -10 25 0 25 -9 29 -43 23 -36 -7 -46 -31 -22 -50 18
-12 17 -15 -19 -49 l-37 -35 -35 26 c-18 14 -37 38 -40 53 -11 50 -14 56 -25
45 -17 -17 -30 -92 -23 -129 3 -19 2 -34 -3 -34 -15 0 -43 35 -43 54 0 11 -6
16 -17 14 -24 -4 -61 -80 -69 -140 -8 -59 -29 -75 -71 -53 -15 8 -35 15 -43
15 -24 0 -77 37 -96 66 -17 25 -17 27 1 40 18 14 18 15 -5 56 -13 24 -35 61
-50 83 -15 22 -39 72 -54 110 -26 64 -29 85 -34 236 -5 158 -4 168 17 211 13
24 48 71 78 104 59 63 83 107 83 150 0 32 66 113 174 216 71 68 158 117 331
190 122 52 127 52 265 24 68 -14 127 -23 130 -21 4 3 10 37 14 76 7 77 12 93
27 84 5 -4 8 -48 6 -98 -4 -119 4 -146 61 -202 64 -64 109 -85 178 -85 52 0
56 -2 51 -21 -3 -11 1 -45 9 -75 8 -30 14 -73 14 -94 l0 -40 86 0 c84 0 86 0
81 -23 -7 -25 -1 -37 28 -53 11 -6 22 -22 24 -35 3 -22 17 -38 33 -39 10 0 -7
54 -27 84 -10 14 -14 26 -10 26 4 0 -4 15 -19 34 -14 19 -26 37 -26 41 0 3
-19 45 -41 93 -98 205 -179 517 -204 785 -8 78 -18 82 -52 20 -13 -22 -40 -55
-60 -74 -20 -19 -57 -55 -82 -81 -25 -25 -65 -56 -88 -67 -62 -31 -103 -75
-103 -109 0 -46 -12 -92 -21 -86 -13 7 -11 108 2 136 10 22 56 56 140 106 19
12 41 33 47 46 6 14 29 36 51 50 21 14 54 45 72 70 17 25 40 48 50 51 9 3 20
13 24 23 7 19 14 143 18 358 3 133 2 141 -15 136 -24 -6 -44 12 -57 50 l-11
30 55 -4 c30 -3 52 -1 49 3 -2 4 0 47 6 96 11 97 7 106 -43 119 -25 6 -34 1
-70 -38 l-42 -45 -435 -7 c-239 -5 -489 -11 -555 -15 -130 -7 -178 -4 -169 10
3 5 18 9 34 9 15 0 30 7 33 15 9 21 -11 29 -38 15 -31 -17 -77 -5 -73 18 1 9
-1 23 -5 30 -5 7 -3 12 7 12 8 0 18 5 22 12 4 6 3 8 -3 5 -6 -4 -18 2 -28 13
-16 17 -17 34 -13 142 4 81 11 139 23 168 9 25 19 56 22 70 4 14 17 39 29 56
16 21 20 34 13 41 -7 7 -6 19 3 38 10 23 10 29 -5 40 -22 16 -22 25 2 25 11 0
23 5 26 10 4 6 -11 10 -36 10 -76 0 -273 23 -254 30 27 10 29 45 2 58 -12 6
-16 11 -9 11 22 2 13 29 -19 55 -19 16 -38 24 -48 21 -10 -3 -32 6 -52 20 -19
13 -55 39 -81 56 -56 36 -60 49 -18 49 22 0 43 -12 75 -41 37 -34 49 -40 72
-35 24 6 35 0 73 -39 24 -25 48 -45 54 -45 11 0 66 60 66 71 0 5 -9 13 -21 19
-11 6 -37 29 -56 51 -20 22 -49 47 -65 55 -27 14 -40 54 -18 54 14 0 12 32 -4
55 -14 20 -40 22 -268 16 -54 -1 -93 -29 -104 -73 -6 -26 -5 -27 28 -22 18 3
51 1 73 -3 45 -10 57 -34 31 -62 -15 -16 -20 -74 -25 -283 -1 -21 -5 -38 -10
-38 -8 0 -72 132 -86 180 -9 29 -42 80 -63 97 -17 14 -55 -1 -85 -35 -18 -19
-17 -21 27 -68 25 -27 46 -52 46 -56 0 -4 8 -15 19 -25 10 -10 21 -28 24 -41
7 -29 -9 -36 -128 -51 -49 -7 -98 -14 -107 -17 -26 -8 -35 21 -43 139 l-7 107
36 0 c25 0 45 8 68 29 36 32 36 35 24 193 -9 114 -15 122 -94 125 -48 1 -57 4
-64 24 -8 21 -26 206 -33 334 -1 33 -6 81 -10 106 l-7 46 76 8 76 7 0 53 c0
30 -4 57 -10 60 -5 3 -10 2 -10 -4 0 -6 -18 -29 -39 -53 -36 -39 -41 -41 -65
-30 -30 13 -40 44 -41 122 0 47 3 55 18 52 10 -2 17 3 17 13 0 8 -9 15 -19 15
-23 0 -28 18 -37 130 l-7 85 38 -35 c20 -19 41 -46 46 -59 7 -16 13 -21 20
-14 7 7 5 19 -5 39 -8 16 -17 37 -20 46 -3 9 -23 29 -46 43 -43 27 -55 67 -23
79 15 6 14 8 -4 21 -16 11 -22 30 -27 86 -5 51 -4 74 4 79 9 6 8 14 -4 32 -12
19 -17 55 -19 149 -2 113 0 124 16 121 9 -2 17 2 17 8 0 5 -11 10 -24 10 -21
0 -25 6 -31 46 -7 47 0 69 14 46 9 -15 46 -61 78 -99 13 -14 20 -29 18 -34 -6
-8 34 -24 42 -16 5 6 -22 51 -49 82 -42 48 -58 69 -58 77 0 12 3 11 58 -17 55
-28 62 -29 62 -16 0 9 -17 19 -105 64 -74 38 -80 50 -94 188 -13 128 -17 208
-13 269 1 19 -1 80 -4 135 -3 55 -5 113 -5 129 0 16 -4 37 -10 48 -6 10 -14
49 -19 86 -5 37 -13 94 -19 127 -5 33 -12 94 -16 135 -6 75 -6 76 20 90 20 11
31 11 44 3 9 -6 30 -9 45 -6 28 6 28 6 21 62 -4 31 -13 62 -20 70 -20 20 -45
6 -45 -26 0 -22 -2 -25 -10 -13 -8 13 -10 12 -10 -2 0 -10 4 -18 9 -18 4 0 6
-11 3 -25 -5 -30 -32 -34 -32 -4 0 11 -7 27 -15 35 -10 10 -15 35 -15 75 0 53
2 59 21 59 18 0 21 -4 16 -29 -5 -21 -2 -31 9 -35 20 -8 34 1 34 20 0 8 5 23
12 33 15 25 -4 51 -37 51 -42 0 -55 11 -54 44 1 46 23 101 42 104 35 7 114
-100 102 -138 -3 -10 1 -34 9 -53 12 -29 20 -83 31 -212 3 -33 -23 -117 -46
-148 -11 -16 -19 -30 -17 -32 2 -2 45 -8 97 -13 102 -11 122 -20 96 -46 -15
-15 -15 -19 5 -62 18 -36 21 -55 16 -97 -5 -39 -3 -57 8 -72 36 -48 16 -73
-105 -131 -52 -26 -84 -30 -94 -14 -3 6 -17 10 -30 10 -27 0 -27 1 -4 -152
l11 -77 47 6 c54 7 55 8 56 35 0 33 22 32 28 -2 9 -45 25 -36 32 18 12 87 16
101 36 107 29 10 39 -2 39 -48 1 -23 1 -54 2 -69 1 -36 -20 -61 -48 -55 -16 3
-21 0 -17 -10 3 -7 13 -13 22 -13 10 0 28 -12 41 -27 18 -21 23 -37 21 -72 -1
-24 -6 -52 -11 -62 -7 -12 -6 -19 1 -21 7 -2 16 -59 23 -148 6 -80 15 -151 19
-157 5 -8 4 -13 -2 -13 -6 0 -11 -11 -11 -24 0 -22 -5 -25 -42 -28 -43 -3 -43
-3 -46 -46 -2 -29 3 -56 17 -83 20 -38 20 -39 2 -39 -10 0 -21 7 -25 15 -6 16
-36 21 -36 6 0 -4 11 -17 25 -27 14 -10 25 -27 25 -36 0 -14 -6 -16 -32 -11
-41 8 -30 -13 12 -22 30 -6 35 -19 31 -67 -2 -20 12 -30 59 -39 l35 -8 -40 2
-40 2 -3 -58 c-3 -49 1 -66 27 -111 23 -40 39 -55 63 -62 l32 -9 -2 -98 c0
-77 2 -99 14 -104 15 -6 20 -33 5 -33 -5 0 -8 -6 -8 -12 1 -25 -16 -78 -24
-78 -14 0 -11 -28 4 -34 8 -3 6 -9 -7 -20 -19 -15 -19 -16 0 -56 10 -22 24
-40 30 -40 26 0 36 -28 23 -65 -15 -39 -28 -45 -36 -15 -3 11 -9 17 -14 14
-12 -7 -12 -144 0 -144 5 0 9 -15 9 -34 0 -18 5 -43 12 -56 15 -28 6 -50 -20
-50 -30 0 -26 -40 11 -105 45 -81 77 -92 155 -55 44 22 99 28 257 29 112 1
116 5 67 73 -30 42 -38 72 -20 83 5 3 16 -7 24 -22 8 -15 26 -39 40 -52 16
-15 28 -39 32 -67 3 -25 10 -47 15 -50 5 -3 9 -17 9 -32 0 -33 8 -45 37 -61
32 -16 38 3 14 42 -12 20 -18 42 -15 55 4 13 -2 32 -14 49 -44 63 -35 121 28
173 l30 25 -21 43 c-20 40 -49 57 -49 28 0 -15 -19 -23 -93 -40 -43 -10 -52
-17 -76 -56 -14 -25 -37 -62 -50 -82 -44 -72 -71 -41 -71 81 0 68 5 92 31 153
17 40 35 83 40 95 4 12 19 29 32 38 21 13 32 14 70 4 25 -6 53 -20 63 -30 22
-25 34 -24 34 2 0 11 5 17 10 14 6 -4 8 -10 5 -15 -9 -14 24 -86 48 -107 49
-42 53 -36 33 57 -7 30 -11 94 -9 143 2 53 -1 94 -7 105 -9 13 -10 7 -7 -29 3
-29 -1 -53 -9 -64 -17 -22 -17 -22 -32 38 -14 56 -6 127 14 127 9 0 14 11 14
29 0 16 3 43 7 61 4 22 3 31 -4 27 -19 -12 -33 20 -43 99 -5 43 -18 93 -27
111 -14 27 -15 36 -4 57 11 21 11 28 -3 47 -15 22 -15 25 5 40 17 12 20 22 15
42 -4 17 -11 24 -20 21 -36 -14 -56 197 -23 234 22 24 22 26 -8 58 -16 18 -25
39 -25 60 0 23 -6 38 -20 46 -23 14 -26 38 -8 56 10 10 10 17 0 32 -23 37 -14
56 26 51 22 -3 13 17 -23 52 -30 29 -36 43 -41 96 -4 34 -10 64 -14 66 -4 3
-5 19 -1 37 6 28 12 34 41 38 24 3 36 11 38 24 3 15 0 18 -21 12 -29 -7 -57 1
-57 17 0 6 -8 19 -17 29 -15 17 -15 19 2 32 18 13 18 26 0 82 -6 18 1 24 45
43 58 25 80 22 80 -9 0 -15 5 -20 18 -18 13 2 17 13 17 43 l0 40 -63 -4 c-55
-3 -67 0 -97 23 -28 22 -33 32 -32 61 2 32 5 35 25 30 18 -4 22 -1 22 18 0 13
5 28 11 34 8 8 8 13 0 17 -6 4 -11 23 -11 43 0 26 -5 36 -19 40 -23 6 -32 45
-21 84 7 22 5 31 -8 39 -16 9 -16 11 1 24 10 8 38 17 62 21 52 7 60 24 13 27
-18 0 -40 2 -48 2 -11 1 -14 12 -12 45 1 24 -1 48 -6 55 -5 6 -12 28 -15 48
-5 34 -4 37 21 40 24 3 28 8 32 53 6 53 31 110 52 118 7 2 -7 10 -32 17 -42
11 -43 13 -25 26 11 8 31 17 45 20 14 3 42 10 63 15 l37 10 -4 117 c-2 64 -7
154 -11 200 l-8 82 -989 0 -988 0 12 -20z m9622 -2238 c71 -22 134 -46 140
-53 8 -9 5 -10 -14 -5 -164 43 -330 67 -330 47 0 -5 37 -47 83 -93 133 -135
234 -244 247 -268 20 -38 -63 38 -180 163 -57 61 -127 135 -156 162 -28 28
-56 61 -63 74 l-13 24 78 -6 c52 -3 123 -18 208 -45z m-5 -69 c65 -13 80 -19
69 -27 -11 -8 -13 -18 -7 -34 11 -30 27 -28 47 9 15 27 21 30 55 26 50 -7 56
-14 29 -33 -12 -8 -22 -21 -22 -29 0 -25 -23 -65 -41 -70 -10 -3 -19 -17 -21
-30 l-3 -25 -30 30 c-16 17 -50 53 -75 81 -25 27 -59 66 -76 85 -37 39 -36 39
75 17z m97 -1143 c2 -31 17 -50 38 -50 26 0 46 -18 46 -41 0 -22 -26 -44 -35
-29 -3 5 -15 10 -26 10 -19 0 -24 -17 -20 -62 2 -20 -16 -23 -39 -8 -13 9 -13
12 3 21 9 5 17 18 17 28 0 31 -31 47 -87 47 -63 -1 -76 -12 -44 -37 l23 -19
-30 0 -31 0 2 60 c2 46 7 63 22 74 26 20 51 20 59 1 3 -8 13 -15 21 -15 12 0
15 6 10 21 -6 18 -3 20 32 17 25 -2 38 -8 39 -18z m-8383 -255 c34 -26 48 -44
53 -70 9 -50 -2 -83 -35 -100 -16 -8 -36 -22 -45 -30 -24 -25 -36 -9 -37 48 0
29 -4 77 -8 107 -14 92 0 100 72 45z m8472 21 c12 -8 32 -41 44 -73 13 -32 27
-66 33 -77 11 -21 -8 -41 -27 -27 -75 53 -103 82 -98 102 4 14 2 20 -4 16 -11
-7 -73 44 -73 60 0 15 102 14 125 -1z m-8434 -632 c10 -16 18 -48 18 -71 1
-48 9 -73 23 -73 7 0 9 19 6 49 -6 56 5 86 22 61 5 -8 10 -23 10 -32 0 -22 4
-22 35 -2 28 18 25 27 31 -96 1 -25 9 -76 17 -115 8 -38 14 -71 12 -73 -3 -3
-38 39 -68 82 -18 26 -85 66 -110 66 -16 0 -54 210 -42 230 10 17 27 7 46 -26z
m5660 -464 c5 0 9 -7 9 -15 0 -9 12 -21 28 -28 15 -6 31 -17 35 -24 4 -7 17
-13 28 -13 11 0 29 -5 40 -10 13 -7 19 -7 19 0 0 5 -5 10 -10 10 -6 0 -5 8 2
19 11 19 14 19 40 3 18 -10 24 -19 16 -23 -9 -6 -8 -11 1 -23 19 -22 31 -20
31 7 1 20 2 20 16 -6 8 -16 14 -40 13 -55 -4 -34 6 -51 37 -62 26 -10 28 -20
18 -119 -8 -67 -20 -76 -61 -42 -24 20 -31 51 -11 51 6 0 1 9 -12 20 -27 23
-32 24 -48 8 -9 -9 -8 -16 4 -29 12 -14 13 -22 4 -38 -8 -16 -7 -26 5 -45 19
-29 36 -37 65 -29 16 4 23 0 27 -16 3 -13 11 -20 19 -17 7 3 28 -7 45 -22 18
-15 37 -27 43 -27 36 -3 60 -32 50 -60 -9 -21 -34 -19 -34 3 0 25 -6 30 -34
25 -14 -3 -29 -18 -40 -39 -14 -31 -14 -37 -2 -50 18 -18 136 -20 136 -2 0 6
2 9 4 7 3 -3 1 -21 -4 -42 -6 -30 -5 -41 8 -54 12 -12 13 -18 4 -21 -14 -4
-17 -62 -2 -62 6 0 10 -4 10 -10 0 -19 -32 -10 -37 10 -3 11 -14 20 -25 20
-15 0 -18 -4 -12 -22 3 -13 11 -24 15 -26 20 -8 8 -32 -16 -32 -16 0 -25 -6
-25 -15 0 -8 9 -15 19 -15 11 0 26 7 35 15 19 20 26 19 26 -3 0 -9 -10 -22
-22 -27 -24 -11 -45 -81 -47 -157 -1 -34 -4 -38 -26 -38 -30 0 -32 -15 -5 -32
30 -19 26 -48 -6 -48 -29 0 -53 -24 -54 -53 0 -24 -27 -50 -41 -41 -8 4 -7 9
2 15 10 6 10 9 2 9 -18 0 -35 -39 -29 -65 4 -14 1 -25 -7 -28 -7 -3 -5 -6 6
-6 9 -1 17 -9 17 -18 0 -27 -32 -107 -47 -116 -7 -4 -13 -14 -13 -21 0 -8 -7
-19 -16 -27 -8 -7 -13 -21 -10 -31 2 -11 -2 -22 -10 -25 -8 -3 -14 -19 -14
-38 0 -33 -23 -55 -36 -34 -10 17 -34 -11 -34 -42 0 -23 -4 -29 -23 -29 -14 0
-26 -9 -32 -22 -9 -20 -16 -23 -57 -20 -34 3 -52 -1 -64 -13 -20 -19 -48 -16
-52 6 -2 9 5 24 14 33 15 16 15 19 -2 52 -30 57 -52 75 -79 68 -18 -4 -27 -1
-31 10 -4 11 -13 14 -24 11 -13 -4 -30 6 -54 30 -23 23 -45 35 -63 35 -21 0
-24 -3 -15 -12 16 -16 15 -38 -2 -38 -7 0 -19 7 -26 16 -8 8 -25 14 -39 12
-17 -2 -29 3 -36 17 -5 12 -22 34 -37 50 -16 17 -28 40 -28 52 0 16 -6 23 -20
23 -24 0 -25 7 -6 51 16 37 4 89 -20 89 -8 0 -14 5 -14 10 0 6 7 10 15 10 8 0
15 7 15 15 0 9 7 18 15 21 16 6 21 44 6 44 -11 0 -36 -30 -36 -44 0 -6 -4 -12
-10 -13 -5 -1 -9 5 -7 14 2 9 -2 20 -10 25 -10 8 -10 11 0 15 6 2 12 13 12 23
0 14 10 21 37 26 60 11 132 53 196 113 57 54 107 132 107 168 0 10 6 29 13 43
9 16 11 37 6 60 -7 33 -4 215 4 272 7 51 57 85 57 40 0 -10 10 -23 21 -30 21
-13 21 -13 16 25 -3 21 -3 30 0 20 2 -10 16 -22 29 -28 35 -13 108 -11 122 3
9 9 12 6 12 -16 0 -15 4 -25 10 -21 16 10 12 35 -12 68 -15 21 -18 32 -10 35
9 3 8 11 -4 33 -8 16 -14 35 -13 42 3 28 -2 39 -16 33 -23 -8 -55 15 -55 40 0
12 -9 33 -20 47 -11 14 -23 39 -26 55 -5 27 -2 33 30 54 38 24 43 37 25 55 -6
6 -8 16 -5 22 10 16 50 -24 43 -43 -4 -10 -1 -16 7 -16 9 0 12 14 11 45 -1 35
2 44 13 40 7 -3 18 -5 23 -5z m-5459 -216 l38 -7 -67 -41 c-66 -41 -68 -42
-84 -104 -26 -101 -42 -103 -37 -5 3 45 1 80 -3 78 -8 -5 -19 30 -19 63 0 21
4 22 68 22 37 0 84 -3 104 -6z m-1011 -1464 c5 0 9 -25 9 -55 0 -30 5 -64 12
-75 7 -10 9 -23 5 -27 -5 -4 -12 -1 -17 7 -5 8 -13 11 -17 6 -4 -5 -2 -11 5
-13 17 -7 15 -23 -9 -68 -16 -30 -24 -73 -32 -167 -9 -112 -9 -136 7 -203 11
-45 15 -87 11 -107 -11 -50 -65 -160 -78 -155 -6 2 -17 23 -25 48 -8 24 -20
58 -27 74 -50 117 -53 366 -6 524 12 40 72 160 83 167 4 3 8 12 8 20 0 9 12
28 28 43 l27 28 3 -23 c2 -13 8 -24 13 -24z m9199 -71 c-11 -36 -8 -33 -38
-48 -17 -9 -27 -9 -37 -1 -15 12 -31 -3 -20 -20 13 -21 -7 -31 -31 -16 -13 9
-30 16 -39 16 -20 0 -19 17 3 29 15 8 12 12 -18 25 -27 12 -30 15 -14 16 12 0
24 7 27 15 5 10 27 15 84 17 43 2 81 2 85 0 3 -1 2 -16 -2 -33z m-4295 -136
c-4 -10 -9 -33 -12 -50 -3 -18 -10 -33 -14 -33 -5 0 -9 -7 -9 -15 0 -24 13
-16 45 28 36 49 73 61 74 25 0 -13 3 -42 7 -64 9 -61 -32 -134 -50 -88 -3 8 1
26 10 39 10 15 13 32 9 46 -7 20 -9 19 -33 -15 -28 -40 -35 -43 -54 -23 -7 8
-20 12 -29 10 -9 -3 -20 0 -23 5 -7 12 19 96 40 130 18 27 50 31 39 5z m2165
-103 c14 -26 12 -72 -5 -93 -11 -16 -11 -25 2 -61 22 -59 11 -123 -33 -187
-19 -28 -34 -61 -34 -73 0 -34 -12 -66 -21 -60 -5 3 -9 26 -9 51 0 34 8 58 30
93 43 67 50 131 19 187 l-24 43 30 24 30 24 -18 36 c-9 20 -17 41 -17 47 0 15
38 -8 50 -31z"/>
<path d="M9624 10033 c-10 -16 -14 -16 -38 -3 -20 10 -32 11 -44 4 -22 -15
-65 -102 -58 -120 8 -22 42 -17 59 9 12 19 22 22 51 19 19 -2 41 -10 47 -18 6
-8 18 -14 26 -14 12 0 14 9 9 43 -3 23 -7 53 -8 67 -4 30 -29 37 -44 13z"/>
<path d="M10240 9703 c-48 -4 -90 -20 -103 -40 -4 -7 -19 -13 -32 -13 -13 0
-27 -5 -31 -11 -5 -9 6 -10 39 -7 40 5 46 3 51 -15 3 -12 0 -27 -6 -35 -7 -7
-12 -22 -13 -32 -1 -10 -9 -25 -18 -35 -9 -9 -17 -26 -17 -39 0 -12 -5 -27
-11 -33 -6 -6 -15 -29 -19 -51 -6 -36 -5 -41 14 -46 11 -3 28 1 36 9 19 17 36
19 44 6 9 -14 -44 -61 -69 -61 -12 0 -39 -13 -60 -30 -30 -24 -34 -31 -21 -36
24 -9 19 -29 -9 -42 -34 -15 -62 -15 -67 0 -4 10 -10 10 -29 1 l-24 -12 28 0
c29 -1 34 -10 15 -29 -9 -9 -5 -12 20 -12 18 0 32 -4 32 -8 0 -4 17 -7 38 -5
20 1 29 0 19 -3 -9 -3 -15 -10 -11 -15 3 -5 -4 -26 -15 -45 -26 -44 -26 -44 3
-44 13 0 29 -6 35 -14 6 -7 24 -16 40 -19 18 -4 32 -15 36 -27 3 -11 15 -20
25 -20 12 0 19 -9 22 -30 5 -32 6 -31 -61 -34 -19 0 -36 -7 -38 -13 -3 -7 -21
-13 -41 -13 -29 0 -39 -5 -48 -24 -11 -23 -10 -24 30 -19 23 3 55 11 71 18 17
7 50 16 75 20 25 3 54 10 65 14 11 5 33 14 48 20 15 6 45 11 65 11 58 1 143
24 157 43 7 9 12 38 11 65 -1 40 -4 47 -19 44 -11 -2 -33 4 -51 12 -18 8 -42
13 -54 9 -24 -6 -30 -23 -9 -23 6 -1 23 -10 36 -21 23 -19 23 -20 5 -34 -17
-12 -20 -11 -26 3 -5 14 -7 13 -7 -4 -1 -18 -9 -23 -46 -28 -24 -4 -47 -11
-50 -17 -10 -15 -28 -10 -22 6 4 8 2 17 -3 20 -16 10 -12 84 6 121 16 33 34
45 34 23 0 -5 4 -8 9 -4 5 3 -1 16 -15 30 -13 13 -24 32 -24 42 0 11 -12 23
-30 30 -38 14 -38 37 -1 94 26 37 29 49 24 91 -5 38 -3 48 9 48 24 0 46 32 58
85 6 27 18 57 26 66 10 12 43 98 44 117 0 3 -109 0 -170 -5z"/>
<path d="M2776 8271 c-4 -6 0 -21 9 -35 16 -23 15 -24 -22 -42 -48 -24 -47
-41 3 -98 66 -75 95 -76 34 -2 -22 27 -40 52 -40 57 0 24 44 4 85 -37 49 -50
73 -53 36 -4 -20 27 -20 31 -5 37 9 3 25 1 35 -5 24 -16 49 -15 49 0 0 7 -7
31 -16 54 -13 35 -23 45 -57 57 -62 23 -104 30 -111 18z"/>
<path d="M634 7985 c-4 -8 -3 -30 1 -48 4 -17 8 -50 8 -72 4 -81 46 -135 83
-104 9 7 24 29 34 50 11 20 37 52 60 71 22 19 40 40 40 45 0 15 -55 33 -101
33 -21 0 -53 9 -71 20 -40 24 -47 25 -54 5z"/>
<path d="M5295 7967 c-11 -7 -56 -21 -100 -31 -121 -27 -227 -67 -221 -82 7
-18 -45 -71 -77 -79 -23 -6 -25 -9 -15 -37 6 -16 19 -35 29 -41 11 -7 19 -17
19 -24 0 -16 69 -46 92 -40 9 3 27 -2 39 -11 21 -15 22 -14 17 6 -4 12 -2 20
2 17 14 -9 60 14 60 29 0 20 37 9 55 -17 11 -16 15 -17 15 -6 0 8 -7 24 -15
35 -17 23 -19 44 -4 44 6 0 29 -16 50 -35 40 -35 48 -38 159 -40 37 -1 76 -21
123 -64 18 -17 41 -26 68 -28 33 -2 53 -13 99 -53 32 -28 72 -53 89 -56 17 -4
31 -12 31 -18 0 -7 21 -25 47 -42 25 -16 51 -34 57 -40 6 -6 20 -15 31 -22 11
-6 14 -12 8 -12 -25 0 -13 -30 11 -30 14 0 28 -5 32 -11 4 -8 -1 -9 -17 -4
-22 7 -23 7 -8 -15 8 -13 31 -32 50 -42 54 -29 61 -45 33 -74 -14 -13 -30 -24
-36 -24 -5 0 -8 -7 -5 -15 4 -8 2 -17 -3 -20 -6 -4 -10 1 -10 9 0 9 -5 16 -11
16 -7 0 -9 -9 -6 -21 5 -18 2 -20 -16 -14 -38 12 -139 35 -202 46 -62 11 -74
14 -215 50 -101 25 -347 37 -393 17 -17 -6 -32 -7 -35 -2 -8 10 -66 44 -76 44
-4 0 -11 -11 -16 -25 -6 -15 -17 -25 -29 -25 -21 0 -30 -16 -23 -42 3 -12 14
-18 33 -18 26 0 29 -4 29 -30 0 -28 -2 -30 -40 -30 -39 0 -40 -1 -40 -33 0
-18 -5 -38 -11 -44 -27 -27 70 -109 123 -104 24 2 27 -1 30 -31 2 -25 8 -33
23 -33 12 0 21 -9 25 -25 6 -27 38 -39 51 -19 6 10 11 10 24 -1 12 -10 21 -10
39 -2 18 8 27 7 39 -5 14 -14 20 -14 49 -3 18 7 40 19 48 25 8 7 21 10 29 7 8
-3 -2 13 -23 34 -57 58 -62 72 -32 85 14 7 32 9 40 6 17 -7 46 -68 50 -105 5
-39 41 -66 89 -67 23 -1 53 -8 67 -17 14 -9 40 -19 58 -23 17 -4 32 -10 32
-15 0 -25 -81 -40 -105 -20 -18 15 -45 6 -45 -14 0 -10 10 -14 29 -14 15 1 33
-2 39 -6 6 -3 21 -2 35 3 20 8 26 6 37 -14 7 -12 9 -32 5 -44 -5 -15 -2 -21 9
-21 9 0 16 -4 16 -9 0 -14 -42 -41 -63 -41 -10 0 -17 -5 -15 -12 3 -8 26 -14
54 -16 27 -2 52 -8 55 -14 5 -8 16 -6 35 6 21 14 37 17 73 12 69 -10 92 -8
106 11 7 9 32 19 56 22 38 5 44 9 45 31 1 14 5 33 9 43 4 10 3 17 -4 17 -6 0
-11 8 -11 18 0 16 7 18 53 16 34 -2 63 3 85 14 32 16 34 19 28 61 l-6 45 23
-23 24 -22 -1 45 c-1 51 7 64 29 46 9 -8 15 -29 15 -57 0 -37 3 -44 16 -39 9
3 33 6 55 6 38 0 39 1 39 37 0 24 9 48 26 71 24 31 26 37 15 72 -13 46 -14
100 -1 120 8 12 10 12 10 1 0 -11 3 -11 15 -1 8 7 12 16 9 21 -3 5 1 9 10 9 8
0 22 3 32 7 12 4 15 3 10 -5 -14 -23 13 -11 33 14 26 33 26 39 1 67 -20 21
-20 22 -1 37 45 36 46 84 2 60 -29 -15 -31 -13 -31 21 0 17 -8 41 -17 53 -16
19 -21 20 -43 9 -30 -15 -35 -11 -19 16 17 26 4 39 -21 23 -28 -17 -31 -15
-20 14 13 34 14 33 -17 31 -25 -2 -28 3 -44 63 -10 36 -18 56 -18 45 -1 -11
-6 -37 -12 -59 l-11 -38 -20 41 c-11 23 -24 41 -29 41 -5 0 -19 11 -31 25 -12
14 -27 25 -33 25 -16 0 -140 65 -172 89 -14 12 -35 21 -47 21 -11 0 -41 14
-66 30 -25 17 -65 37 -90 47 -78 28 -170 74 -170 84 0 10 -104 59 -126 59 -8
0 -14 4 -14 9 0 5 -8 17 -17 27 -10 10 -18 24 -18 33 0 11 -21 18 -85 28 -107
15 -102 15 -125 0z m250 -817 c6 -4 26 -10 45 -14 85 -16 95 -19 103 -32 4 -8
21 -14 36 -14 37 0 57 -22 37 -39 -9 -7 -24 -10 -37 -6 -14 5 -19 3 -15 -3 6
-11 -76 -9 -209 3 -27 3 -71 7 -97 9 -28 3 -48 0 -48 -5 0 -6 -5 -7 -11 -3 -6
3 -8 16 -5 29 7 27 -11 37 -53 29 -45 -9 -47 14 -2 26 22 6 42 14 45 19 7 10
197 11 211 1z"/>
<path d="M2300 7468 c-23 -25 -43 -109 -38 -162 l3 -39 33 51 c18 28 44 55 60
60 15 6 38 20 52 31 30 24 21 37 -45 62 -45 17 -46 17 -65 -3z"/>
<path d="M465 7461 c-8 -14 34 -100 55 -111 23 -13 26 -37 6 -59 -8 -9 -18
-32 -23 -51 -8 -30 -13 -35 -36 -32 -15 2 -27 -1 -27 -8 0 -7 15 -9 41 -6 38
5 55 17 79 57 5 9 27 19 50 23 51 8 55 38 9 61 -21 11 -39 34 -56 71 -13 30
-28 52 -33 49 -5 -3 -20 -1 -34 5 -14 5 -28 5 -31 1z"/>
<path d="M3920 7440 c0 -16 -4 -30 -10 -30 -5 0 -17 -26 -25 -57 -9 -32 -27
-79 -40 -105 -31 -62 -40 -126 -26 -186 9 -36 17 -48 31 -49 22 -2 36 37 46
123 5 50 43 162 75 223 16 31 17 37 4 69 -8 19 -15 36 -15 38 0 2 -9 4 -20 4
-16 0 -20 -7 -20 -30z"/>
<path d="M3107 7093 c-4 -3 -7 -16 -7 -28 0 -11 -4 -25 -10 -31 -5 -5 -19 -28
-32 -52 -30 -57 -98 -139 -120 -145 -25 -7 -23 -37 2 -37 11 0 20 7 20 15 0
14 4 14 36 0 50 -21 173 -21 180 0 7 16 -22 260 -31 276 -7 11 -29 12 -38 2z"/>
<path d="M10650 6923 c-94 -7 -90 -2 -90 -104 l0 -91 29 5 c20 4 37 1 51 -11
19 -15 20 -22 12 -52 -7 -25 -10 -29 -11 -13 -1 20 -6 22 -40 20 -37 -2 -40
-4 -45 -37 -6 -40 -10 -195 -7 -322 l1 -88 73 1 c54 1 65 3 42 9 -16 4 -47 8
-67 9 l-38 1 1 158 c1 89 6 169 13 184 13 32 48 43 107 33 31 -5 51 -2 80 11
36 18 39 22 39 62 0 23 -5 42 -10 42 -6 0 -15 11 -21 24 -9 18 -7 31 10 64 12
23 21 54 21 70 0 28 -1 29 -52 29 -29 0 -73 -2 -98 -4z"/>
<path d="M3018 6624 c-35 -19 -35 -24 2 -59 28 -27 30 -34 24 -69 -3 -22 -18
-53 -34 -69 -16 -17 -26 -36 -23 -44 8 -21 20 -15 40 17 35 60 138 75 196 30
36 -28 40 -25 33 23 -4 23 -8 64 -9 92 -2 44 -6 52 -36 72 -27 18 -47 23 -100
23 -39 -1 -77 -7 -93 -16z"/>
<path d="M10653 6514 c-7 -3 -13 -12 -13 -20 0 -8 -5 -14 -11 -14 -8 0 -8 -4
0 -14 10 -12 8 -17 -7 -25 -14 -8 -19 -22 -20 -65 l-1 -56 83 0 c60 0 87 4 95
14 8 10 9 16 1 21 -16 10 -12 55 5 61 14 6 14 8 0 18 -8 6 -16 27 -18 46 -2
35 -3 35 -52 37 -28 1 -56 0 -62 -3z"/>
<path d="M10536 6163 c-3 -10 -8 -213 -11 -450 l-5 -433 24 0 c23 0 24 2 15
30 -6 16 -9 37 -6 47 3 13 5 11 6 -7 0 -14 12 -38 26 -53 25 -26 30 -27 121
-27 72 0 95 3 91 13 -2 6 -12 12 -23 13 -26 1 -115 14 -136 20 -10 3 -18 12
-18 19 0 8 -11 17 -25 21 -14 3 -25 12 -25 19 0 21 16 26 30 10 9 -11 30 -13
93 -9 93 5 123 20 83 41 -22 12 -24 16 -15 42 6 17 17 35 25 42 18 15 20 189
2 207 -9 9 -9 12 0 12 16 0 14 191 -2 202 -8 5 -7 8 2 8 9 0 12 32 12 125 l0
125 -129 0 c-115 0 -130 -2 -135 -17z"/>
<path d="M5933 5304 c-23 -10 -14 -45 18 -75 17 -16 35 -29 40 -29 5 0 9 -7 9
-15 0 -11 13 -15 54 -15 52 0 81 14 59 29 -6 3 -13 16 -17 29 -15 48 -118 96
-163 76z"/>
<path d="M10677 5213 c-4 -3 -1 -13 5 -21 28 -33 40 -93 45 -220 l5 -133 29
-14 c15 -8 30 -15 34 -15 3 0 5 92 5 205 l0 205 -58 0 c-32 0 -62 -3 -65 -7z"/>
<path d="M10232 4797 c-7 -18 -12 -41 -12 -51 0 -43 65 -68 106 -41 24 16 26
21 20 63 -7 52 -17 62 -66 62 -32 0 -37 -4 -48 -33z"/>
<path d="M5421 4759 c-24 -20 -91 -26 -91 -9 0 16 -131 6 -169 -13 -19 -9 -38
-17 -43 -17 -16 0 -67 -40 -79 -62 -10 -18 -9 -20 9 -16 18 5 19 3 9 -13 -9
-14 -9 -21 0 -30 9 -9 24 -8 65 4 29 9 66 19 83 23 26 6 27 8 10 15 -20 7 -20
8 0 8 11 1 58 -4 105 -9 86 -10 200 2 200 21 0 5 6 9 13 9 7 0 32 20 56 45 28
30 37 45 27 45 -9 0 -16 -4 -16 -8 0 -5 -18 -9 -40 -10 -22 -1 -40 3 -40 8 0
7 -6 7 -19 0 -27 -14 -41 -13 -41 4 0 24 -14 25 -39 5z"/>
<path d="M3313 4378 c-18 -11 -33 -23 -33 -28 0 -4 14 -37 30 -73 17 -37 30
-76 30 -87 0 -27 31 -26 51 3 26 36 29 87 11 147 -20 63 -38 71 -89 38z"/>
</g>
</svg>
